<?xml version="1.0" encoding="utf-8"?><!-- Uploaded to: SVG Repo, www.svgrepo.com, Generator: SVG Repo Mixer Tools -->
<svg fill="currentColor" width="800px" height="800px" viewBox="0 0 24 24" xmlns="http://www.w3.org/2000/svg">
  <path fill-rule="evenodd" d="M17.7510477,5.00945512 C18.1156885,4.65317657 18.6832031,4.63202809 19.07193,4.94158256 L19.1651661,5.02585826 L19.2621783,5.12532271 C21.0085837,6.96960051 22,9.40828462 22,12 C22,17.5228475 17.5228475,22 12,22 C6.4771525,22 2,17.5228475 2,12 C2,9.5209679 2.90708036,7.18194928 4.52382631,5.35934352 L4.74867188,5.11404263 L4.83483391,5.02585826 C5.22080233,4.63083063 5.85392472,4.6234867 6.24895234,5.00945512 C6.61359323,5.36573366 6.64790008,5.93260493 6.34744581,6.32840766 L6.26535549,6.42357355 L6.1900436,6.50047785 C4.79197458,7.97689773 4,9.92499537 4,12 C4,16.418278 7.581722,20 12,20 C16.418278,20 20,16.418278 20,12 C20,10.0342061 19.2891973,8.18231218 18.0348658,6.74705738 L17.8208065,6.51175792 L17.7346445,6.42357355 C17.3486761,6.02854592 17.35602,5.39542354 17.7510477,5.00945512 Z M12,2 C12.5522847,2 13,2.44771525 13,3 L13,11 C13,11.5522847 12.5522847,12 12,12 C11.4477153,12 11,11.5522847 11,11 L11,3 C11,2.44771525 11.4477153,2 12,2 Z"/>
</svg>